<svg xmlns="http://www.w3.org/2000/svg" viewBox="0 0 64 64" id="exam-paper"><g data-name="13 Exam paper"><path fill="#bddbff" d="M45.987,62H12a3,3,0,0,1-3-3V5a3,3,0,0,1,3-3H52a3,3,0,0,1,3,3V53H48.987c-1.654,0-2.237,1.343-2.237,3ZM19,12a2,2,0,0,0,2,2H43a2,2,0,0,0,2-2V8a2,2,0,0,0-2-2H21a2,2,0,0,0-2,2Zm5,40a2,2,0,0,0-2-2H20a2,2,0,0,0-2,2v2a2,2,0,0,0,2,2h2a2,2,0,0,0,2-2Zm0-8a2,2,0,0,0-2-2H20a2,2,0,0,0-2,2v2a2,2,0,0,0,2,2h2a2,2,0,0,0,2-2Zm0-8a2,2,0,0,0-2-2H20a2,2,0,0,0-2,2v2a2,2,0,0,0,2,2h2a2,2,0,0,0,2-2Zm0-8a2,2,0,0,0-2-2H20a2,2,0,0,0-2,2v2a2,2,0,0,0,2,2h2a2,2,0,0,0,2-2Zm0-8a2,2,0,0,0-2-2H20a2,2,0,0,0-2,2v2a2,2,0,0,0,2,2h2a2,2,0,0,0,2-2Z"></path><path fill="#3d9ae2" d="M52,2H12A3,3,0,0,0,9,5V59a3,3,0,0,0,3,3H46a9.01,9.01,0,0,0,9-9V5A3,3,0,0,0,52,2ZM12,60a1,1,0,0,1-1-1V5a1,1,0,0,1,1-1H52a1,1,0,0,1,1,1V52.523C51.9,53.3,50.269,53,49,53a3,3,0,0,0-3,3c0,1.047.422,3.166-.382,4Zm40.451-4.284a7.116,7.116,0,0,1-4.5,4A2.988,2.988,0,0,0,48,59.184V56a1,1,0,0,1,1-1l2.689,0a2.942,2.942,0,0,0,1.049-.126A5.376,5.376,0,0,1,52.451,55.716Z"></path><path fill="#3d9ae2" d="M22 18H20a2 2 0 0 0-2 2v2a2 2 0 0 0 2 2h2a2 2 0 0 0 2-2V20A2 2 0 0 0 22 18zm-2 4V20h2v2zM21 14H43a2 2 0 0 0 2-2V8a2 2 0 0 0-2-2H21a2 2 0 0 0-2 2v4A2 2 0 0 0 21 14zm0-6H43v4H21zM22 26H20a2 2 0 0 0-2 2v2a2 2 0 0 0 2 2h2a2 2 0 0 0 2-2V28A2 2 0 0 0 22 26zm-2 4V28h2v2zM22 34H20a2 2 0 0 0-2 2v2a2 2 0 0 0 2 2h2a2 2 0 0 0 2-2V36A2 2 0 0 0 22 34zm-2 4V36h2v2zM22 42H20a2 2 0 0 0-2 2v2a2 2 0 0 0 2 2h2a2 2 0 0 0 2-2V44A2 2 0 0 0 22 42zm-2 4V44h2v2zM45 20a1 1 0 0 1 0 2H26a1 1 0 0 1 0-2zm0 8H26a1 1 0 0 0 0 2H45A1 1 0 0 0 45 28zm0 8H26a1 1 0 0 0 0 2H45A1 1 0 0 0 45 36zm0 8H26a1 1 0 0 0 0 2H45A1 1 0 0 0 45 44zm0 8H26a1 1 0 0 0 0 2H45A1 1 0 0 0 45 52zM22 50H20a2 2 0 0 0-2 2v2a2 2 0 0 0 2 2h2a2 2 0 0 0 2-2V52A2 2 0 0 0 22 50zm-2 4V52h2v2z"></path></g></svg>