<svg xmlns="http://www.w3.org/2000/svg" xmlns:xlink="http://www.w3.org/1999/xlink" width="543" zoomAndPan="magnify" viewBox="0 0 407.25 101.999999" height="136" preserveAspectRatio="xMidYMid meet" version="1.0"><defs><g/></defs><path fill="#bddbff" d="M 72.699219 98.394531 L 18.96875 98.394531 C 18.660156 98.394531 18.351562 98.363281 18.046875 98.304688 C 17.738281 98.242188 17.441406 98.152344 17.15625 98.035156 C 16.867188 97.914062 16.59375 97.769531 16.335938 97.597656 C 16.078125 97.421875 15.835938 97.226562 15.617188 97.007812 C 15.398438 96.785156 15.199219 96.546875 15.027344 96.289062 C 14.855469 96.027344 14.707031 95.753906 14.589844 95.46875 C 14.46875 95.179688 14.378906 94.882812 14.320312 94.578125 C 14.257812 94.273438 14.226562 93.964844 14.226562 93.652344 L 14.226562 8.285156 C 14.226562 7.972656 14.257812 7.664062 14.320312 7.359375 C 14.378906 7.054688 14.46875 6.757812 14.589844 6.46875 C 14.707031 6.183594 14.855469 5.910156 15.027344 5.652344 C 15.199219 5.390625 15.398438 5.152344 15.617188 4.933594 C 15.835938 4.710938 16.078125 4.515625 16.335938 4.34375 C 16.59375 4.167969 16.867188 4.023438 17.15625 3.902344 C 17.441406 3.785156 17.738281 3.695312 18.046875 3.632812 C 18.351562 3.574219 18.660156 3.542969 18.96875 3.542969 L 82.207031 3.542969 C 82.515625 3.542969 82.824219 3.574219 83.128906 3.632812 C 83.4375 3.695312 83.734375 3.785156 84.019531 3.902344 C 84.308594 4.023438 84.582031 4.167969 84.839844 4.34375 C 85.097656 4.515625 85.339844 4.710938 85.558594 4.933594 C 85.777344 5.152344 85.976562 5.390625 86.148438 5.652344 C 86.320312 5.910156 86.46875 6.183594 86.585938 6.46875 C 86.707031 6.757812 86.796875 7.054688 86.855469 7.359375 C 86.917969 7.664062 86.949219 7.972656 86.949219 8.285156 L 86.949219 84.167969 L 77.441406 84.167969 C 74.828125 84.167969 73.90625 86.289062 73.90625 88.910156 Z M 30.035156 19.351562 C 30.035156 19.769531 30.117188 20.175781 30.277344 20.5625 C 30.4375 20.949219 30.667969 21.289062 30.960938 21.585938 C 31.257812 21.882812 31.601562 22.113281 31.988281 22.273438 C 32.375 22.433594 32.777344 22.511719 33.199219 22.511719 L 67.976562 22.511719 C 68.398438 22.511719 68.800781 22.433594 69.1875 22.273438 C 69.574219 22.113281 69.917969 21.882812 70.214844 21.585938 C 70.507812 21.289062 70.738281 20.949219 70.898438 20.5625 C 71.058594 20.175781 71.140625 19.769531 71.140625 19.351562 L 71.140625 13.027344 C 71.140625 12.609375 71.058594 12.207031 70.898438 11.816406 C 70.738281 11.429688 70.507812 11.089844 70.214844 10.792969 C 69.917969 10.496094 69.574219 10.265625 69.1875 10.105469 C 68.800781 9.945312 68.398438 9.867188 67.976562 9.867188 L 33.199219 9.867188 C 32.777344 9.867188 32.375 9.945312 31.988281 10.105469 C 31.601562 10.265625 31.257812 10.496094 30.960938 10.792969 C 30.667969 11.089844 30.4375 11.429688 30.277344 11.816406 C 30.117188 12.207031 30.035156 12.609375 30.035156 13.027344 Z M 37.941406 82.585938 C 37.941406 82.167969 37.859375 81.765625 37.699219 81.375 C 37.539062 80.988281 37.3125 80.648438 37.015625 80.351562 C 36.71875 80.054688 36.375 79.824219 35.988281 79.664062 C 35.601562 79.503906 35.199219 79.425781 34.777344 79.425781 L 31.617188 79.425781 C 31.199219 79.425781 30.792969 79.503906 30.40625 79.664062 C 30.019531 79.824219 29.679688 80.054688 29.382812 80.351562 C 29.085938 80.648438 28.855469 80.988281 28.695312 81.375 C 28.535156 81.765625 28.457031 82.167969 28.457031 82.585938 L 28.457031 85.75 C 28.457031 86.167969 28.535156 86.570312 28.695312 86.957031 C 28.855469 87.34375 29.085938 87.6875 29.382812 87.984375 C 29.679688 88.28125 30.019531 88.507812 30.40625 88.667969 C 30.792969 88.828125 31.199219 88.910156 31.617188 88.910156 L 34.777344 88.910156 C 35.199219 88.910156 35.601562 88.828125 35.988281 88.667969 C 36.375 88.507812 36.71875 88.28125 37.015625 87.984375 C 37.3125 87.6875 37.539062 87.34375 37.699219 86.957031 C 37.859375 86.570312 37.941406 86.167969 37.941406 85.75 Z M 37.941406 69.9375 C 37.941406 69.519531 37.859375 69.117188 37.699219 68.730469 C 37.539062 68.34375 37.3125 68 37.015625 67.703125 C 36.71875 67.40625 36.375 67.179688 35.988281 67.019531 C 35.601562 66.859375 35.199219 66.777344 34.777344 66.777344 L 31.617188 66.777344 C 31.199219 66.777344 30.792969 66.859375 30.40625 67.019531 C 30.019531 67.179688 29.679688 67.40625 29.382812 67.703125 C 29.085938 68 28.855469 68.34375 28.695312 68.730469 C 28.535156 69.117188 28.457031 69.519531 28.457031 69.9375 L 28.457031 73.101562 C 28.457031 73.519531 28.535156 73.921875 28.695312 74.3125 C 28.855469 74.699219 29.085938 75.039062 29.382812 75.335938 C 29.679688 75.632812 30.019531 75.863281 30.40625 76.023438 C 30.792969 76.183594 31.199219 76.261719 31.617188 76.261719 L 34.777344 76.261719 C 35.199219 76.261719 35.601562 76.183594 35.988281 76.023438 C 36.375 75.863281 36.71875 75.632812 37.015625 75.335938 C 37.3125 75.039062 37.539062 74.699219 37.699219 74.3125 C 37.859375 73.921875 37.941406 73.519531 37.941406 73.101562 Z M 37.941406 57.292969 C 37.941406 56.875 37.859375 56.46875 37.699219 56.082031 C 37.539062 55.695312 37.3125 55.351562 37.015625 55.058594 C 36.71875 54.761719 36.375 54.53125 35.988281 54.371094 C 35.601562 54.210938 35.199219 54.128906 34.777344 54.128906 L 31.617188 54.128906 C 31.199219 54.128906 30.792969 54.210938 30.40625 54.371094 C 30.019531 54.53125 29.679688 54.761719 29.382812 55.058594 C 29.085938 55.351562 28.855469 55.695312 28.695312 56.082031 C 28.535156 56.46875 28.457031 56.875 28.457031 57.292969 L 28.457031 60.453125 C 28.457031 60.875 28.535156 61.277344 28.695312 61.664062 C 28.855469 62.050781 29.085938 62.394531 29.382812 62.691406 C 29.679688 62.984375 30.019531 63.214844 30.40625 63.375 C 30.792969 63.535156 31.199219 63.617188 31.617188 63.617188 L 34.777344 63.617188 C 35.199219 63.617188 35.601562 63.535156 35.988281 63.375 C 36.375 63.214844 36.71875 62.984375 37.015625 62.691406 C 37.3125 62.394531 37.539062 62.050781 37.699219 61.664062 C 37.859375 61.277344 37.941406 60.875 37.941406 60.453125 Z M 37.941406 44.644531 C 37.941406 44.226562 37.859375 43.824219 37.699219 43.433594 C 37.539062 43.046875 37.3125 42.707031 37.015625 42.410156 C 36.71875 42.113281 36.375 41.882812 35.988281 41.722656 C 35.601562 41.5625 35.199219 41.484375 34.777344 41.484375 L 31.617188 41.484375 C 31.199219 41.484375 30.792969 41.5625 30.40625 41.722656 C 30.019531 41.882812 29.679688 42.113281 29.382812 42.410156 C 29.085938 42.707031 28.855469 43.046875 28.695312 43.433594 C 28.535156 43.824219 28.457031 44.226562 28.457031 44.644531 L 28.457031 47.808594 C 28.457031 48.226562 28.535156 48.628906 28.695312 49.015625 C 28.855469 49.40625 29.085938 49.746094 29.382812 50.042969 C 29.679688 50.339844 30.019531 50.566406 30.40625 50.726562 C 30.792969 50.886719 31.199219 50.96875 31.617188 50.96875 L 34.777344 50.96875 C 35.199219 50.96875 35.601562 50.886719 35.988281 50.726562 C 36.375 50.566406 36.71875 50.339844 37.015625 50.042969 C 37.3125 49.746094 37.539062 49.40625 37.699219 49.015625 C 37.859375 48.628906 37.941406 48.226562 37.941406 47.808594 Z M 37.941406 32 C 37.941406 31.578125 37.859375 31.175781 37.699219 30.789062 C 37.539062 30.402344 37.3125 30.058594 37.015625 29.761719 C 36.71875 29.464844 36.375 29.238281 35.988281 29.078125 C 35.601562 28.917969 35.199219 28.835938 34.777344 28.835938 L 31.617188 28.835938 C 31.199219 28.835938 30.792969 28.917969 30.40625 29.078125 C 30.019531 29.238281 29.679688 29.464844 29.382812 29.761719 C 29.085938 30.058594 28.855469 30.402344 28.695312 30.789062 C 28.535156 31.175781 28.457031 31.578125 28.457031 32 L 28.457031 35.160156 C 28.457031 35.578125 28.535156 35.984375 28.695312 36.371094 C 28.855469 36.757812 29.085938 37.097656 29.382812 37.394531 C 29.679688 37.691406 30.019531 37.921875 30.40625 38.082031 C 30.792969 38.242188 31.199219 38.320312 31.617188 38.320312 L 34.777344 38.320312 C 35.199219 38.320312 35.601562 38.242188 35.988281 38.082031 C 36.375 37.921875 36.71875 37.691406 37.015625 37.394531 C 37.3125 37.097656 37.539062 36.757812 37.699219 36.371094 C 37.859375 35.984375 37.941406 35.578125 37.941406 35.160156 Z M 37.941406 32 " fill-opacity="1" fill-rule="nonzero"/><path fill="#3d9ae2" d="M 82.207031 3.542969 L 18.96875 3.542969 C 18.660156 3.542969 18.351562 3.574219 18.046875 3.632812 C 17.738281 3.695312 17.441406 3.785156 17.15625 3.902344 C 16.867188 4.023438 16.59375 4.167969 16.335938 4.34375 C 16.078125 4.515625 15.835938 4.710938 15.617188 4.933594 C 15.398438 5.152344 15.199219 5.390625 15.027344 5.652344 C 14.855469 5.910156 14.707031 6.183594 14.589844 6.46875 C 14.46875 6.757812 14.378906 7.054688 14.320312 7.359375 C 14.257812 7.664062 14.226562 7.972656 14.226562 8.285156 L 14.226562 93.652344 C 14.226562 93.964844 14.257812 94.273438 14.320312 94.578125 C 14.378906 94.882812 14.46875 95.179688 14.589844 95.46875 C 14.707031 95.753906 14.855469 96.027344 15.027344 96.289062 C 15.199219 96.546875 15.398438 96.785156 15.617188 97.007812 C 15.835938 97.226562 16.078125 97.421875 16.335938 97.597656 C 16.59375 97.769531 16.867188 97.914062 17.15625 98.035156 C 17.441406 98.152344 17.738281 98.242188 18.046875 98.304688 C 18.351562 98.363281 18.660156 98.394531 18.96875 98.394531 L 72.71875 98.394531 C 73.652344 98.394531 74.578125 98.300781 75.496094 98.117188 C 76.410156 97.9375 77.300781 97.664062 78.164062 97.308594 C 79.023438 96.949219 79.84375 96.511719 80.621094 95.992188 C 81.398438 95.472656 82.117188 94.882812 82.777344 94.222656 C 83.4375 93.5625 84.027344 92.84375 84.546875 92.066406 C 85.0625 91.292969 85.503906 90.472656 85.859375 89.609375 C 86.21875 88.746094 86.488281 87.859375 86.671875 86.941406 C 86.855469 86.027344 86.945312 85.101562 86.949219 84.167969 L 86.949219 8.285156 C 86.949219 7.972656 86.917969 7.664062 86.855469 7.359375 C 86.796875 7.054688 86.707031 6.757812 86.585938 6.46875 C 86.46875 6.183594 86.320312 5.910156 86.148438 5.652344 C 85.976562 5.390625 85.777344 5.152344 85.558594 4.933594 C 85.339844 4.710938 85.097656 4.515625 84.839844 4.34375 C 84.582031 4.167969 84.308594 4.023438 84.019531 3.902344 C 83.734375 3.785156 83.4375 3.695312 83.128906 3.632812 C 82.824219 3.574219 82.515625 3.542969 82.207031 3.542969 Z M 18.96875 95.234375 C 18.761719 95.234375 18.558594 95.191406 18.367188 95.113281 C 18.171875 95.03125 18 94.917969 17.851562 94.769531 C 17.703125 94.621094 17.589844 94.449219 17.511719 94.257812 C 17.429688 94.0625 17.390625 93.863281 17.390625 93.652344 L 17.390625 8.285156 C 17.390625 8.074219 17.429688 7.875 17.511719 7.679688 C 17.589844 7.488281 17.703125 7.316406 17.851562 7.167969 C 18 7.019531 18.171875 6.90625 18.367188 6.824219 C 18.558594 6.746094 18.761719 6.703125 18.96875 6.703125 L 82.207031 6.703125 C 82.414062 6.703125 82.617188 6.746094 82.808594 6.824219 C 83.003906 6.90625 83.175781 7.019531 83.324219 7.167969 C 83.472656 7.316406 83.585938 7.488281 83.664062 7.679688 C 83.746094 7.875 83.785156 8.074219 83.785156 8.285156 L 83.785156 83.414062 C 82.046875 84.640625 79.46875 84.167969 77.460938 84.167969 C 77.152344 84.167969 76.84375 84.199219 76.539062 84.257812 C 76.230469 84.320312 75.9375 84.410156 75.648438 84.527344 C 75.359375 84.648438 75.085938 84.792969 74.828125 84.964844 C 74.570312 85.140625 74.328125 85.335938 74.109375 85.554688 C 73.890625 85.777344 73.691406 86.015625 73.519531 86.273438 C 73.347656 86.535156 73.199219 86.808594 73.082031 87.09375 C 72.960938 87.382812 72.871094 87.679688 72.8125 87.984375 C 72.75 88.289062 72.71875 88.597656 72.71875 88.910156 C 72.71875 90.566406 73.386719 93.914062 72.117188 95.234375 Z M 82.917969 88.460938 C 82.257812 89.988281 81.308594 91.304688 80.0625 92.410156 C 78.820312 93.519531 77.398438 94.308594 75.804688 94.785156 C 75.855469 94.507812 75.882812 94.226562 75.882812 93.941406 L 75.882812 88.910156 C 75.882812 88.699219 75.921875 88.5 76.003906 88.304688 C 76.082031 88.109375 76.195312 87.941406 76.34375 87.792969 C 76.492188 87.644531 76.664062 87.53125 76.859375 87.449219 C 77.050781 87.367188 77.253906 87.328125 77.460938 87.328125 L 81.714844 87.328125 C 82.277344 87.363281 82.832031 87.296875 83.371094 87.128906 C 83.257812 87.585938 83.105469 88.03125 82.917969 88.460938 Z M 82.917969 88.460938 " fill-opacity="1" fill-rule="nonzero"/><path fill="#3d9ae2" d="M 34.777344 28.835938 L 31.617188 28.835938 C 31.199219 28.835938 30.792969 28.917969 30.40625 29.078125 C 30.019531 29.238281 29.679688 29.464844 29.382812 29.761719 C 29.085938 30.058594 28.855469 30.402344 28.695312 30.789062 C 28.535156 31.175781 28.457031 31.578125 28.457031 32 L 28.457031 35.160156 C 28.457031 35.578125 28.535156 35.984375 28.695312 36.371094 C 28.855469 36.757812 29.085938 37.097656 29.382812 37.394531 C 29.679688 37.691406 30.019531 37.921875 30.40625 38.082031 C 30.792969 38.242188 31.199219 38.320312 31.617188 38.320312 L 34.777344 38.320312 C 35.199219 38.320312 35.601562 38.242188 35.988281 38.082031 C 36.375 37.921875 36.71875 37.691406 37.015625 37.394531 C 37.3125 37.097656 37.539062 36.757812 37.699219 36.371094 C 37.859375 35.984375 37.941406 35.578125 37.941406 35.160156 L 37.941406 32 C 37.941406 31.578125 37.859375 31.175781 37.699219 30.789062 C 37.539062 30.402344 37.3125 30.058594 37.015625 29.761719 C 36.71875 29.464844 36.375 29.238281 35.988281 29.078125 C 35.601562 28.917969 35.199219 28.835938 34.777344 28.835938 Z M 31.617188 35.160156 L 31.617188 32 L 34.777344 32 L 34.777344 35.160156 Z M 33.199219 22.511719 L 67.976562 22.511719 C 68.398438 22.511719 68.800781 22.433594 69.1875 22.273438 C 69.574219 22.113281 69.917969 21.882812 70.214844 21.585938 C 70.507812 21.289062 70.738281 20.949219 70.898438 20.5625 C 71.058594 20.175781 71.140625 19.769531 71.140625 19.351562 L 71.140625 13.027344 C 71.140625 12.609375 71.058594 12.207031 70.898438 11.816406 C 70.738281 11.429688 70.507812 11.089844 70.214844 10.792969 C 69.917969 10.496094 69.574219 10.265625 69.1875 10.105469 C 68.800781 9.945312 68.398438 9.867188 67.976562 9.867188 L 33.199219 9.867188 C 32.777344 9.867188 32.375 9.945312 31.988281 10.105469 C 31.601562 10.265625 31.257812 10.496094 30.960938 10.792969 C 30.667969 11.089844 30.4375 11.429688 30.277344 11.816406 C 30.117188 12.207031 30.035156 12.609375 30.035156 13.027344 L 30.035156 19.351562 C 30.035156 19.769531 30.117188 20.175781 30.277344 20.5625 C 30.4375 20.949219 30.667969 21.289062 30.960938 21.585938 C 31.257812 21.882812 31.601562 22.113281 31.988281 22.273438 C 32.375 22.433594 32.777344 22.511719 33.199219 22.511719 Z M 33.199219 13.027344 L 67.976562 13.027344 L 67.976562 19.351562 L 33.199219 19.351562 Z M 34.777344 41.484375 L 31.617188 41.484375 C 31.199219 41.484375 30.792969 41.5625 30.40625 41.722656 C 30.019531 41.882812 29.679688 42.113281 29.382812 42.410156 C 29.085938 42.707031 28.855469 43.046875 28.695312 43.433594 C 28.535156 43.824219 28.457031 44.226562 28.457031 44.644531 L 28.457031 47.808594 C 28.457031 48.226562 28.535156 48.628906 28.695312 49.015625 C 28.855469 49.40625 29.085938 49.746094 29.382812 50.042969 C 29.679688 50.339844 30.019531 50.566406 30.40625 50.726562 C 30.792969 50.886719 31.199219 50.96875 31.617188 50.96875 L 34.777344 50.96875 C 35.199219 50.96875 35.601562 50.886719 35.988281 50.726562 C 36.375 50.566406 36.71875 50.339844 37.015625 50.042969 C 37.3125 49.746094 37.539062 49.40625 37.699219 49.015625 C 37.859375 48.628906 37.941406 48.226562 37.941406 47.808594 L 37.941406 44.644531 C 37.941406 44.226562 37.859375 43.824219 37.699219 43.433594 C 37.539062 43.046875 37.3125 42.707031 37.015625 42.410156 C 36.71875 42.113281 36.375 41.882812 35.988281 41.722656 C 35.601562 41.5625 35.199219 41.484375 34.777344 41.484375 Z M 31.617188 47.808594 L 31.617188 44.644531 L 34.777344 44.644531 L 34.777344 47.808594 Z M 34.777344 54.128906 L 31.617188 54.128906 C 31.199219 54.128906 30.792969 54.210938 30.40625 54.371094 C 30.019531 54.53125 29.679688 54.761719 29.382812 55.058594 C 29.085938 55.351562 28.855469 55.695312 28.695312 56.082031 C 28.535156 56.46875 28.457031 56.875 28.457031 57.292969 L 28.457031 60.453125 C 28.457031 60.875 28.535156 61.277344 28.695312 61.664062 C 28.855469 62.050781 29.085938 62.394531 29.382812 62.691406 C 29.679688 62.984375 30.019531 63.214844 30.40625 63.375 C 30.792969 63.535156 31.199219 63.617188 31.617188 63.617188 L 34.777344 63.617188 C 35.199219 63.617188 35.601562 63.535156 35.988281 63.375 C 36.375 63.214844 36.71875 62.984375 37.015625 62.691406 C 37.3125 62.394531 37.539062 62.050781 37.699219 61.664062 C 37.859375 61.277344 37.941406 60.875 37.941406 60.453125 L 37.941406 57.292969 C 37.941406 56.875 37.859375 56.46875 37.699219 56.082031 C 37.539062 55.695312 37.3125 55.351562 37.015625 55.058594 C 36.71875 54.761719 36.375 54.53125 35.988281 54.371094 C 35.601562 54.210938 35.199219 54.128906 34.777344 54.128906 Z M 31.617188 60.453125 L 31.617188 57.292969 L 34.777344 57.292969 L 34.777344 60.453125 Z M 34.777344 66.777344 L 31.617188 66.777344 C 31.199219 66.777344 30.792969 66.859375 30.40625 67.019531 C 30.019531 67.179688 29.679688 67.40625 29.382812 67.703125 C 29.085938 68 28.855469 68.34375 28.695312 68.730469 C 28.535156 69.117188 28.457031 69.519531 28.457031 69.9375 L 28.457031 73.101562 C 28.457031 73.519531 28.535156 73.921875 28.695312 74.3125 C 28.855469 74.699219 29.085938 75.039062 29.382812 75.335938 C 29.679688 75.632812 30.019531 75.863281 30.40625 76.023438 C 30.792969 76.183594 31.199219 76.261719 31.617188 76.261719 L 34.777344 76.261719 C 35.199219 76.261719 35.601562 76.183594 35.988281 76.023438 C 36.375 75.863281 36.71875 75.632812 37.015625 75.335938 C 37.3125 75.039062 37.539062 74.699219 37.699219 74.3125 C 37.859375 73.921875 37.941406 73.519531 37.941406 73.101562 L 37.941406 69.9375 C 37.941406 69.519531 37.859375 69.117188 37.699219 68.730469 C 37.539062 68.34375 37.3125 68 37.015625 67.703125 C 36.71875 67.40625 36.375 67.179688 35.988281 67.019531 C 35.601562 66.859375 35.199219 66.777344 34.777344 66.777344 Z M 31.617188 73.101562 L 31.617188 69.9375 L 34.777344 69.9375 L 34.777344 73.101562 Z M 71.140625 32 C 71.347656 32 71.550781 32.039062 71.746094 32.117188 C 71.9375 32.199219 72.109375 32.3125 72.257812 32.460938 C 72.40625 32.609375 72.519531 32.78125 72.601562 32.972656 C 72.679688 33.167969 72.71875 33.371094 72.71875 33.578125 C 72.71875 33.789062 72.679688 33.992188 72.601562 34.183594 C 72.519531 34.378906 72.40625 34.550781 72.257812 34.695312 C 72.109375 34.84375 71.9375 34.960938 71.746094 35.039062 C 71.550781 35.121094 71.347656 35.160156 71.140625 35.160156 L 41.101562 35.160156 C 40.894531 35.160156 40.691406 35.121094 40.496094 35.039062 C 40.304688 34.960938 40.132812 34.84375 39.984375 34.695312 C 39.835938 34.550781 39.722656 34.378906 39.640625 34.183594 C 39.5625 33.992188 39.523438 33.789062 39.523438 33.578125 C 39.523438 33.371094 39.5625 33.167969 39.640625 32.972656 C 39.722656 32.78125 39.835938 32.609375 39.984375 32.460938 C 40.132812 32.3125 40.304688 32.199219 40.496094 32.117188 C 40.691406 32.039062 40.894531 32 41.101562 32 Z M 71.140625 44.644531 L 41.101562 44.644531 C 40.894531 44.644531 40.691406 44.683594 40.496094 44.765625 C 40.304688 44.847656 40.132812 44.960938 39.984375 45.109375 C 39.835938 45.257812 39.722656 45.425781 39.640625 45.621094 C 39.5625 45.816406 39.523438 46.015625 39.523438 46.226562 C 39.523438 46.4375 39.5625 46.636719 39.640625 46.832031 C 39.722656 47.023438 39.835938 47.195312 39.984375 47.34375 C 40.132812 47.492188 40.304688 47.605469 40.496094 47.6875 C 40.691406 47.765625 40.894531 47.808594 41.101562 47.808594 L 71.140625 47.808594 C 71.347656 47.808594 71.550781 47.765625 71.746094 47.6875 C 71.9375 47.605469 72.109375 47.492188 72.257812 47.34375 C 72.40625 47.195312 72.519531 47.023438 72.601562 46.832031 C 72.679688 46.636719 72.71875 46.4375 72.71875 46.226562 C 72.71875 46.015625 72.679688 45.816406 72.601562 45.621094 C 72.519531 45.425781 72.40625 45.257812 72.257812 45.109375 C 72.109375 44.960938 71.9375 44.847656 71.746094 44.765625 C 71.550781 44.683594 71.347656 44.644531 71.140625 44.644531 Z M 71.140625 57.292969 L 41.101562 57.292969 C 40.894531 57.292969 40.691406 57.332031 40.496094 57.414062 C 40.304688 57.492188 40.132812 57.605469 39.984375 57.753906 C 39.835938 57.902344 39.722656 58.074219 39.640625 58.269531 C 39.5625 58.460938 39.523438 58.664062 39.523438 58.875 C 39.523438 59.082031 39.5625 59.285156 39.640625 59.476562 C 39.722656 59.671875 39.835938 59.84375 39.984375 59.992188 C 40.132812 60.140625 40.304688 60.253906 40.496094 60.332031 C 40.691406 60.414062 40.894531 60.453125 41.101562 60.453125 L 71.140625 60.453125 C 71.347656 60.453125 71.550781 60.414062 71.746094 60.332031 C 71.9375 60.253906 72.109375 60.140625 72.257812 59.992188 C 72.40625 59.84375 72.519531 59.671875 72.601562 59.476562 C 72.679688 59.285156 72.71875 59.082031 72.71875 58.875 C 72.71875 58.664062 72.679688 58.460938 72.601562 58.269531 C 72.519531 58.074219 72.40625 57.902344 72.257812 57.753906 C 72.109375 57.605469 71.9375 57.492188 71.746094 57.414062 C 71.550781 57.332031 71.347656 57.292969 71.140625 57.292969 Z M 71.140625 69.9375 L 41.101562 69.9375 C 40.894531 69.9375 40.691406 69.980469 40.496094 70.058594 C 40.304688 70.140625 40.132812 70.253906 39.984375 70.402344 C 39.835938 70.550781 39.722656 70.722656 39.640625 70.914062 C 39.5625 71.109375 39.523438 71.3125 39.523438 71.519531 C 39.523438 71.730469 39.5625 71.929688 39.640625 72.125 C 39.722656 72.320312 39.835938 72.488281 39.984375 72.636719 C 40.132812 72.785156 40.304688 72.902344 40.496094 72.980469 C 40.691406 73.0625 40.894531 73.101562 41.101562 73.101562 L 71.140625 73.101562 C 71.347656 73.101562 71.550781 73.0625 71.746094 72.980469 C 71.9375 72.902344 72.109375 72.785156 72.257812 72.636719 C 72.40625 72.488281 72.519531 72.320312 72.601562 72.125 C 72.679688 71.929688 72.71875 71.730469 72.71875 71.519531 C 72.71875 71.3125 72.679688 71.109375 72.601562 70.914062 C 72.519531 70.722656 72.40625 70.550781 72.257812 70.402344 C 72.109375 70.253906 71.9375 70.140625 71.746094 70.058594 C 71.550781 69.980469 71.347656 69.9375 71.140625 69.9375 Z M 71.140625 82.585938 L 41.101562 82.585938 C 40.894531 82.585938 40.691406 82.625 40.496094 82.707031 C 40.304688 82.785156 40.132812 82.902344 39.984375 83.050781 C 39.835938 83.199219 39.722656 83.367188 39.640625 83.5625 C 39.5625 83.757812 39.523438 83.957031 39.523438 84.167969 C 39.523438 84.375 39.5625 84.578125 39.640625 84.773438 C 39.722656 84.964844 39.835938 85.136719 39.984375 85.285156 C 40.132812 85.433594 40.304688 85.546875 40.496094 85.628906 C 40.691406 85.707031 40.894531 85.75 41.101562 85.75 L 71.140625 85.75 C 71.347656 85.75 71.550781 85.707031 71.746094 85.628906 C 71.9375 85.546875 72.109375 85.433594 72.257812 85.285156 C 72.40625 85.136719 72.519531 84.964844 72.601562 84.773438 C 72.679688 84.578125 72.71875 84.375 72.71875 84.167969 C 72.71875 83.957031 72.679688 83.757812 72.601562 83.5625 C 72.519531 83.367188 72.40625 83.199219 72.257812 83.050781 C 72.109375 82.902344 71.9375 82.785156 71.746094 82.707031 C 71.550781 82.625 71.347656 82.585938 71.140625 82.585938 Z M 34.777344 79.425781 L 31.617188 79.425781 C 31.199219 79.425781 30.792969 79.503906 30.40625 79.664062 C 30.019531 79.824219 29.679688 80.054688 29.382812 80.351562 C 29.085938 80.648438 28.855469 80.988281 28.695312 81.375 C 28.535156 81.765625 28.457031 82.167969 28.457031 82.585938 L 28.457031 85.75 C 28.457031 86.167969 28.535156 86.570312 28.695312 86.957031 C 28.855469 87.34375 29.085938 87.6875 29.382812 87.984375 C 29.679688 88.28125 30.019531 88.507812 30.40625 88.667969 C 30.792969 88.828125 31.199219 88.910156 31.617188 88.910156 L 34.777344 88.910156 C 35.199219 88.910156 35.601562 88.828125 35.988281 88.667969 C 36.375 88.507812 36.71875 88.28125 37.015625 87.984375 C 37.3125 87.6875 37.539062 87.34375 37.699219 86.957031 C 37.859375 86.570312 37.941406 86.167969 37.941406 85.75 L 37.941406 82.585938 C 37.941406 82.167969 37.859375 81.765625 37.699219 81.375 C 37.539062 80.988281 37.3125 80.648438 37.015625 80.351562 C 36.71875 80.054688 36.375 79.824219 35.988281 79.664062 C 35.601562 79.503906 35.199219 79.425781 34.777344 79.425781 Z M 31.617188 85.75 L 31.617188 82.585938 L 34.777344 82.585938 L 34.777344 85.75 Z M 31.617188 85.75 " fill-opacity="1" fill-rule="nonzero"/><g fill="#000000" fill-opacity="1"><g transform="translate(100.979816, 64.510863)"><g><path d="M 25.921875 -23.390625 C 25.453125 -25.003906 24.597656 -26.269531 23.359375 -27.1875 C 22.117188 -28.101562 20.554688 -28.5625 18.671875 -28.5625 C 16.035156 -28.5625 13.894531 -27.585938 12.25 -25.640625 C 10.613281 -23.691406 9.796875 -20.914062 9.796875 -17.3125 C 9.796875 -13.695312 10.597656 -10.90625 12.203125 -8.9375 C 13.816406 -6.96875 16 -5.984375 18.75 -5.984375 C 21.175781 -5.984375 23.082031 -6.613281 24.46875 -7.875 C 25.863281 -9.144531 26.582031 -10.851562 26.625 -13 L 19.203125 -13 L 19.203125 -18.5 L 33.65625 -18.5 L 33.65625 -14.140625 C 33.65625 -11.109375 33.015625 -8.5 31.734375 -6.3125 C 30.453125 -4.125 28.6875 -2.445312 26.4375 -1.28125 C 24.195312 -0.113281 21.625 0.46875 18.71875 0.46875 C 15.476562 0.46875 12.628906 -0.242188 10.171875 -1.671875 C 7.722656 -3.109375 5.8125 -5.148438 4.4375 -7.796875 C 3.070312 -10.453125 2.390625 -13.601562 2.390625 -17.25 C 2.390625 -20.976562 3.101562 -24.171875 4.53125 -26.828125 C 5.96875 -29.484375 7.90625 -31.515625 10.34375 -32.921875 C 12.78125 -34.328125 15.519531 -35.03125 18.5625 -35.03125 C 21.164062 -35.03125 23.523438 -34.535156 25.640625 -33.546875 C 27.753906 -32.554688 29.488281 -31.1875 30.84375 -29.4375 C 32.195312 -27.6875 33.03125 -25.671875 33.34375 -23.390625 Z M 25.921875 -23.390625 "/></g></g></g><g fill="#000000" fill-opacity="1"><g transform="translate(137.119644, 64.510863)"><g><path d="M 2.875 0 L 2.875 -25.921875 L 9.84375 -25.921875 L 9.84375 -21.390625 L 10.109375 -21.390625 C 10.578125 -23.003906 11.363281 -24.222656 12.46875 -25.046875 C 13.582031 -25.867188 14.867188 -26.28125 16.328125 -26.28125 C 17.023438 -26.28125 17.671875 -26.195312 18.265625 -26.03125 C 18.867188 -25.863281 19.40625 -25.632812 19.875 -25.34375 L 17.71875 -19.40625 C 17.375 -19.570312 17.003906 -19.710938 16.609375 -19.828125 C 16.210938 -19.953125 15.765625 -20.015625 15.265625 -20.015625 C 13.816406 -20.015625 12.585938 -19.519531 11.578125 -18.53125 C 10.578125 -17.539062 10.070312 -16.25 10.0625 -14.65625 L 10.0625 0 Z M 2.875 0 "/></g></g></g><g fill="#000000" fill-opacity="1"><g transform="translate(157.484147, 64.510863)"><g><path d="M 10.265625 0.484375 C 7.785156 0.484375 5.726562 -0.160156 4.09375 -1.453125 C 2.46875 -2.742188 1.65625 -4.671875 1.65625 -7.234375 C 1.65625 -9.171875 2.109375 -10.691406 3.015625 -11.796875 C 3.929688 -12.898438 5.128906 -13.707031 6.609375 -14.21875 C 8.085938 -14.726562 9.679688 -15.0625 11.390625 -15.21875 C 13.640625 -15.445312 15.25 -15.679688 16.21875 -15.921875 C 17.1875 -16.171875 17.671875 -16.710938 17.671875 -17.546875 L 17.671875 -17.65625 C 17.671875 -18.71875 17.332031 -19.539062 16.65625 -20.125 C 15.988281 -20.707031 15.039062 -21 13.8125 -21 C 12.519531 -21 11.488281 -20.71875 10.71875 -20.15625 C 9.957031 -19.59375 9.457031 -18.878906 9.21875 -18.015625 L 2.5625 -18.5625 C 3.0625 -20.925781 4.289062 -22.796875 6.25 -24.171875 C 8.21875 -25.554688 10.753906 -26.25 13.859375 -26.25 C 15.773438 -26.25 17.570312 -25.945312 19.25 -25.34375 C 20.925781 -24.738281 22.28125 -23.789062 23.3125 -22.5 C 24.34375 -21.207031 24.859375 -19.535156 24.859375 -17.484375 L 24.859375 0 L 18.03125 0 L 18.03125 -3.59375 L 17.828125 -3.59375 C 17.203125 -2.382812 16.257812 -1.398438 15 -0.640625 C 13.75 0.109375 12.171875 0.484375 10.265625 0.484375 Z M 12.3125 -4.46875 C 13.894531 -4.46875 15.191406 -4.925781 16.203125 -5.84375 C 17.210938 -6.757812 17.71875 -7.898438 17.71875 -9.265625 L 17.71875 -12.015625 C 17.4375 -11.828125 17 -11.65625 16.40625 -11.5 C 15.820312 -11.351562 15.191406 -11.226562 14.515625 -11.125 C 13.847656 -11.019531 13.25 -10.925781 12.71875 -10.84375 C 11.457031 -10.664062 10.441406 -10.3125 9.671875 -9.78125 C 8.898438 -9.257812 8.515625 -8.488281 8.515625 -7.46875 C 8.515625 -6.476562 8.867188 -5.726562 9.578125 -5.21875 C 10.296875 -4.71875 11.207031 -4.46875 12.3125 -4.46875 Z M 12.3125 -4.46875 "/></g></g></g><g fill="#000000" fill-opacity="1"><g transform="translate(185.052999, 64.510863)"><g><path d="M 12.421875 0.421875 C 10.453125 0.421875 8.671875 -0.0820312 7.078125 -1.09375 C 5.492188 -2.113281 4.234375 -3.617188 3.296875 -5.609375 C 2.367188 -7.597656 1.90625 -10.035156 1.90625 -12.921875 C 1.90625 -15.890625 2.382812 -18.359375 3.34375 -20.328125 C 4.3125 -22.304688 5.585938 -23.785156 7.171875 -24.765625 C 8.765625 -25.753906 10.507812 -26.25 12.40625 -26.25 C 13.851562 -26.25 15.0625 -26.003906 16.03125 -25.515625 C 17.007812 -25.023438 17.796875 -24.421875 18.390625 -23.703125 C 18.992188 -22.984375 19.457031 -22.269531 19.78125 -21.5625 L 20 -21.5625 L 20 -34.5625 L 27.171875 -34.5625 L 27.171875 0 L 20.078125 0 L 20.078125 -4.15625 L 19.78125 -4.15625 C 19.445312 -3.4375 18.972656 -2.722656 18.359375 -2.015625 C 17.742188 -1.316406 16.945312 -0.734375 15.96875 -0.265625 C 15 0.191406 13.816406 0.421875 12.421875 0.421875 Z M 14.703125 -5.296875 C 16.429688 -5.296875 17.769531 -5.992188 18.71875 -7.390625 C 19.664062 -8.796875 20.140625 -10.648438 20.140625 -12.953125 C 20.140625 -15.273438 19.664062 -17.117188 18.71875 -18.484375 C 17.78125 -19.847656 16.441406 -20.53125 14.703125 -20.53125 C 12.921875 -20.53125 11.566406 -19.828125 10.640625 -18.421875 C 9.710938 -17.023438 9.25 -15.203125 9.25 -12.953125 C 9.25 -10.691406 9.710938 -8.847656 10.640625 -7.421875 C 11.578125 -6.003906 12.929688 -5.296875 14.703125 -5.296875 Z M 14.703125 -5.296875 "/></g></g></g><g fill="#000000" fill-opacity="1"><g transform="translate(215.237015, 64.510863)"><g><path d="M 14.6875 0.5 C 12.03125 0.5 9.738281 -0.0390625 7.8125 -1.125 C 5.882812 -2.207031 4.40625 -3.742188 3.375 -5.734375 C 2.34375 -7.734375 1.828125 -10.101562 1.828125 -12.84375 C 1.828125 -15.507812 2.34375 -17.847656 3.375 -19.859375 C 4.40625 -21.867188 5.863281 -23.4375 7.75 -24.5625 C 9.632812 -25.6875 11.847656 -26.25 14.390625 -26.25 C 16.671875 -26.25 18.726562 -25.765625 20.5625 -24.796875 C 22.40625 -23.835938 23.867188 -22.378906 24.953125 -20.421875 C 26.035156 -18.472656 26.578125 -16.03125 26.578125 -13.09375 L 26.578125 -11.125 L 8.921875 -11.125 L 8.921875 -11.109375 C 8.921875 -9.171875 9.445312 -7.644531 10.5 -6.53125 C 11.5625 -5.414062 12.992188 -4.859375 14.796875 -4.859375 C 16.003906 -4.859375 17.046875 -5.109375 17.921875 -5.609375 C 18.796875 -6.117188 19.414062 -6.867188 19.78125 -7.859375 L 26.421875 -7.421875 C 25.921875 -5.015625 24.640625 -3.09375 22.578125 -1.65625 C 20.515625 -0.21875 17.882812 0.5 14.6875 0.5 Z M 8.921875 -15.578125 L 19.8125 -15.578125 C 19.800781 -17.117188 19.304688 -18.390625 18.328125 -19.390625 C 17.347656 -20.390625 16.078125 -20.890625 14.515625 -20.890625 C 12.910156 -20.890625 11.597656 -20.367188 10.578125 -19.328125 C 9.554688 -18.296875 9.003906 -17.046875 8.921875 -15.578125 Z M 8.921875 -15.578125 "/></g></g></g><g fill="#000000" fill-opacity="1"><g transform="translate(243.632595, 64.510863)"><g><path d="M 3 0 L 3 -34.5625 L 16.84375 -34.5625 C 20.65625 -34.5625 23.519531 -33.726562 25.4375 -32.0625 C 27.351562 -30.40625 28.3125 -28.285156 28.3125 -25.703125 C 28.3125 -23.660156 27.71875 -22.007812 26.53125 -20.75 C 25.351562 -19.5 23.867188 -18.675781 22.078125 -18.28125 L 22.078125 -17.9375 C 23.390625 -17.882812 24.617188 -17.515625 25.765625 -16.828125 C 26.921875 -16.140625 27.859375 -15.179688 28.578125 -13.953125 C 29.296875 -12.722656 29.65625 -11.253906 29.65625 -9.546875 C 29.65625 -7.710938 29.203125 -6.078125 28.296875 -4.640625 C 27.398438 -3.203125 26.066406 -2.066406 24.296875 -1.234375 C 22.535156 -0.410156 20.359375 0 17.765625 0 Z M 10.3125 -5.96875 L 16.265625 -5.96875 C 18.316406 -5.96875 19.804688 -6.359375 20.734375 -7.140625 C 21.660156 -7.929688 22.125 -8.976562 22.125 -10.28125 C 22.125 -11.707031 21.613281 -12.875 20.59375 -13.78125 C 19.570312 -14.695312 18.1875 -15.15625 16.4375 -15.15625 L 10.3125 -15.15625 Z M 10.3125 -20.09375 L 15.71875 -20.09375 C 17.21875 -20.09375 18.460938 -20.484375 19.453125 -21.265625 C 20.441406 -22.046875 20.9375 -23.117188 20.9375 -24.484375 C 20.9375 -25.734375 20.492188 -26.738281 19.609375 -27.5 C 18.734375 -28.269531 17.484375 -28.65625 15.859375 -28.65625 L 10.3125 -28.65625 Z M 10.3125 -20.09375 "/></g></g></g><g fill="#000000" fill-opacity="1"><g transform="translate(275.031395, 64.510863)"><g><path d="M 14.578125 0.5 C 11.953125 0.5 9.6875 -0.0546875 7.78125 -1.171875 C 5.875 -2.296875 4.40625 -3.859375 3.375 -5.859375 C 2.34375 -7.867188 1.828125 -10.203125 1.828125 -12.859375 C 1.828125 -15.535156 2.34375 -17.875 3.375 -19.875 C 4.40625 -21.882812 5.875 -23.445312 7.78125 -24.5625 C 9.6875 -25.6875 11.953125 -26.25 14.578125 -26.25 C 17.203125 -26.25 19.46875 -25.6875 21.375 -24.5625 C 23.28125 -23.445312 24.75 -21.882812 25.78125 -19.875 C 26.8125 -17.875 27.328125 -15.535156 27.328125 -12.859375 C 27.328125 -10.203125 26.8125 -7.867188 25.78125 -5.859375 C 24.75 -3.859375 23.28125 -2.296875 21.375 -1.171875 C 19.46875 -0.0546875 17.203125 0.5 14.578125 0.5 Z M 14.609375 -5.0625 C 16.390625 -5.0625 17.738281 -5.800781 18.65625 -7.28125 C 19.570312 -8.769531 20.03125 -10.644531 20.03125 -12.90625 C 20.03125 -15.164062 19.570312 -17.039062 18.65625 -18.53125 C 17.738281 -20.019531 16.390625 -20.765625 14.609375 -20.765625 C 12.796875 -20.765625 11.425781 -20.019531 10.5 -18.53125 C 9.582031 -17.039062 9.125 -15.164062 9.125 -12.90625 C 9.125 -10.644531 9.582031 -8.769531 10.5 -7.28125 C 11.425781 -5.800781 12.796875 -5.0625 14.609375 -5.0625 Z M 14.609375 -5.0625 "/></g></g></g><g fill="#000000" fill-opacity="1"><g transform="translate(304.186204, 64.510863)"><g><path d="M 14.578125 0.5 C 11.953125 0.5 9.6875 -0.0546875 7.78125 -1.171875 C 5.875 -2.296875 4.40625 -3.859375 3.375 -5.859375 C 2.34375 -7.867188 1.828125 -10.203125 1.828125 -12.859375 C 1.828125 -15.535156 2.34375 -17.875 3.375 -19.875 C 4.40625 -21.882812 5.875 -23.445312 7.78125 -24.5625 C 9.6875 -25.6875 11.953125 -26.25 14.578125 -26.25 C 17.203125 -26.25 19.46875 -25.6875 21.375 -24.5625 C 23.28125 -23.445312 24.75 -21.882812 25.78125 -19.875 C 26.8125 -17.875 27.328125 -15.535156 27.328125 -12.859375 C 27.328125 -10.203125 26.8125 -7.867188 25.78125 -5.859375 C 24.75 -3.859375 23.28125 -2.296875 21.375 -1.171875 C 19.46875 -0.0546875 17.203125 0.5 14.578125 0.5 Z M 14.609375 -5.0625 C 16.390625 -5.0625 17.738281 -5.800781 18.65625 -7.28125 C 19.570312 -8.769531 20.03125 -10.644531 20.03125 -12.90625 C 20.03125 -15.164062 19.570312 -17.039062 18.65625 -18.53125 C 17.738281 -20.019531 16.390625 -20.765625 14.609375 -20.765625 C 12.796875 -20.765625 11.425781 -20.019531 10.5 -18.53125 C 9.582031 -17.039062 9.125 -15.164062 9.125 -12.90625 C 9.125 -10.644531 9.582031 -8.769531 10.5 -7.28125 C 11.425781 -5.800781 12.796875 -5.0625 14.609375 -5.0625 Z M 14.609375 -5.0625 "/></g></g></g><g fill="#000000" fill-opacity="1"><g transform="translate(333.341012, 64.510863)"><g><path d="M 2.875 0 L 2.875 -34.5625 L 10.0625 -34.5625 L 10.0625 -16.078125 L 10.4375 -16.078125 L 18.75 -25.921875 L 27 -25.921875 L 17.375 -14.703125 L 27.484375 0 L 19.0625 0 L 12 -10.4375 L 10.0625 -8.234375 L 10.0625 0 Z M 2.875 0 "/></g></g></g></svg>